<?xml version="1.0" standalone="no"?>
<!DOCTYPE svg PUBLIC "-//W3C//DTD SVG 20010904//EN"
 "http://www.w3.org/TR/2001/REC-SVG-20010904/DTD/svg10.dtd">
<svg version="1.0" xmlns="http://www.w3.org/2000/svg"
 width="1500.000000pt" height="1500.000000pt" viewBox="0 0 1500.000000 1500.000000"
 preserveAspectRatio="xMidYMid meet">

<g transform="translate(0.000000,1500.000000) scale(0.100000,-0.100000)"
fill="#000000" stroke="none">
<path d="M10175 9582 c-11 -2 -30 -13 -42 -25 -21 -19 -23 -29 -23 -129 l0
-108 -3479 -2 -3479 -3 -26 -24 c-40 -38 -34 -115 11 -137 10 -5 1562 -11
3493 -14 l3475 -5 5 -113 c5 -104 7 -115 29 -133 26 -22 62 -24 94 -7 43 23
376 278 391 300 18 25 21 61 6 87 -12 23 -376 296 -410 309 -14 4 -34 6 -45 4z"/>
<path d="M4260 7765 l0 -775 115 0 115 0 0 323 c0 356 4 388 60 466 84 115
266 152 382 76 23 -16 46 -44 65 -82 l28 -58 3 -362 3 -363 115 0 115 0 -3
408 c-3 354 -6 414 -21 459 -32 95 -123 189 -210 215 -24 7 -89 13 -152 12
-90 0 -120 -4 -165 -23 -72 -30 -154 -92 -188 -143 l-27 -42 -3 332 -2 332
-115 0 -115 0 0 -775z"/>
<path d="M3138 8520 c-159 -25 -287 -78 -390 -161 -120 -96 -194 -210 -244
-374 -25 -82 -27 -105 -27 -250 0 -133 3 -173 21 -238 74 -270 262 -455 537
-529 117 -31 366 -31 481 0 290 78 473 260 545 542 28 108 31 316 6 427 -64
285 -266 491 -552 564 -92 23 -288 33 -377 19z m295 -236 c184 -48 315 -177
372 -369 23 -75 26 -265 6 -345 -46 -183 -182 -329 -355 -381 -93 -28 -254
-30 -340 -5 -189 56 -312 181 -367 374 -25 89 -26 250 0 347 27 107 80 198
151 263 44 40 143 94 205 112 79 23 246 25 328 4z"/>
<path d="M11331 8512 c-48 -24 -73 -62 -78 -119 -8 -90 53 -153 147 -153 88 0
150 60 150 146 0 77 -70 144 -150 144 -19 0 -50 -8 -69 -18z"/>
<path d="M11794 8519 c-42 -12 -74 -49 -85 -99 -22 -99 41 -180 141 -180 93 0
150 54 150 144 0 108 -92 168 -206 135z"/>
<path d="M5480 8273 c0 -139 8 -307 25 -503 34 -401 24 -360 95 -360 54 0 60
2 64 23 18 85 56 659 56 840 l0 207 -120 0 -120 0 0 -207z"/>
<path d="M6500 7736 l0 -746 368 0 c202 0 407 5 455 10 286 33 432 188 414
440 -11 154 -93 259 -235 301 l-43 13 59 26 c112 51 172 139 180 265 11 171
-64 309 -204 374 -108 51 -133 54 -576 58 l-418 5 0 -746z m793 520 c114 -34
172 -131 146 -244 -31 -141 -129 -175 -489 -170 l-195 3 0 213 -1 212 247 0
c180 0 258 -4 292 -14z m62 -631 c73 -37 112 -85 124 -151 20 -106 -23 -195
-116 -241 l-58 -28 -275 -3 -276 -3 2 228 c1 125 2 229 3 231 0 2 122 2 269 0
l268 -3 59 -30z"/>
<path d="M10510 8386 l-95 -22 -3 -152 -3 -152 -109 0 -110 0 0 -95 0 -95 109
0 110 0 3 -332 3 -333 26 -56 c119 -253 525 -265 681 -20 15 25 28 51 28 59 0
7 -23 40 -51 72 l-51 58 -27 -52 c-66 -127 -232 -164 -324 -72 -53 52 -57 83
-57 395 l0 281 225 0 225 0 0 95 0 95 -225 0 -225 0 0 175 c0 160 -1 175 -17
174 -10 -1 -61 -11 -113 -23z"/>
<path d="M7893 7663 c4 -417 6 -433 53 -524 66 -131 200 -209 355 -209 130 0
250 59 327 160 l35 45 -5 -100 c-5 -121 -27 -175 -101 -241 -62 -56 -148 -84
-256 -84 -141 0 -258 45 -347 135 l-54 53 -60 -75 -60 -75 20 -29 c54 -74 167
-144 295 -181 104 -29 314 -32 414 -4 192 52 320 176 365 352 14 53 16 143 16
618 l0 556 -115 0 -115 0 0 -348 c0 -397 -2 -409 -76 -491 -55 -62 -124 -92
-208 -93 -108 0 -184 48 -228 146 -22 50 -23 60 -26 419 l-4 367 -115 0 -115
0 5 -397z"/>
<path d="M9080 7678 c0 -303 3 -396 15 -446 43 -180 162 -272 355 -272 145 0
262 49 349 147 25 29 49 53 52 53 3 0 11 -38 18 -85 l13 -85 99 0 99 0 0 535
0 535 -115 0 -114 0 -3 -342 c-3 -324 -4 -345 -24 -389 -31 -66 -78 -115 -142
-146 -47 -23 -70 -28 -133 -28 -67 0 -82 4 -125 30 -37 24 -56 45 -79 90 l-30
59 -3 363 -3 363 -115 0 -114 0 0 -382z"/>
<path d="M11280 7525 l0 -535 115 0 115 0 0 535 0 535 -115 0 -115 0 0 -535z"/>
<path d="M11740 7525 l0 -535 115 0 115 0 0 535 0 535 -115 0 -115 0 0 -535z"/>
<path d="M5531 7242 c-47 -23 -72 -61 -78 -113 -15 -155 195 -221 277 -87 57
94 -17 218 -130 218 -19 0 -50 -8 -69 -18z"/>
<path d="M7260 5865 c0 -92 4 -155 10 -155 5 0 10 33 12 73 l3 72 53 3 c69 4
67 22 -3 22 l-56 0 3 58 3 57 68 3 c94 4 84 22 -13 22 l-80 0 0 -155z"/>
<path d="M7565 6008 c-3 -7 -27 -75 -55 -151 -56 -155 -54 -147 -39 -147 5 0
17 16 25 35 l15 36 76 -3 77 -3 10 -32 c5 -18 15 -33 24 -33 8 0 12 6 10 13
-96 260 -112 297 -124 297 -8 0 -17 -6 -19 -12z m54 -116 l30 -82 -64 0 c-36
0 -65 2 -65 4 0 2 6 19 13 37 8 19 22 56 31 82 10 27 20 47 21 45 2 -2 17 -41
34 -86z"/>
<path d="M7815 6008 c-76 -41 -51 -135 41 -152 55 -10 84 -32 84 -61 0 -61
-80 -86 -126 -40 -28 28 -49 33 -40 9 3 -9 6 -17 6 -20 0 -2 13 -10 30 -19 65
-34 142 -6 155 56 10 47 -13 73 -84 93 -87 24 -112 73 -58 111 31 22 65 18 93
-10 14 -14 29 -25 34 -25 17 0 11 20 -15 45 -26 27 -83 33 -120 13z"/>
<path d="M8030 5865 c0 -92 4 -155 10 -155 5 0 10 33 12 73 l3 72 83 3 82 3 0
-76 c0 -60 3 -75 15 -75 13 0 15 24 15 155 0 131 -2 155 -15 155 -12 0 -15
-14 -15 -70 l0 -70 -85 0 -85 0 0 70 c0 40 -4 70 -10 70 -6 0 -10 -58 -10
-155z"/>
<path d="M8330 5865 c0 -97 4 -155 10 -155 6 0 10 58 10 155 0 97 -4 155 -10
155 -6 0 -10 -58 -10 -155z"/>
<path d="M8487 5999 c-101 -53 -99 -217 4 -270 84 -42 193 -4 219 77 16 47 8
119 -17 153 -44 60 -135 77 -206 40z m133 -14 c49 -25 70 -62 70 -121 0 -41
-5 -59 -25 -82 -51 -61 -128 -66 -187 -13 -26 23 -32 36 -35 82 -5 64 9 94 56
126 39 27 80 29 121 8z"/>
<path d="M8780 5865 c0 -192 18 -212 22 -24 l3 131 89 -131 c48 -72 94 -131
102 -131 11 0 14 29 14 155 0 131 -2 155 -15 155 -13 0 -15 -21 -15 -132 l0
-133 -88 132 c-48 73 -93 133 -99 133 -10 0 -13 -38 -13 -155z"/>
<path d="M9200 6011 c0 -6 19 -11 43 -13 l42 -3 3 -142 c3 -192 22 -190 22 2
l0 145 40 0 c22 0 40 5 40 10 0 6 -38 10 -95 10 -53 0 -95 -4 -95 -9z"/>
<path d="M9460 5865 c0 -92 4 -155 10 -155 5 0 10 33 12 73 l3 72 83 3 82 3 0
-76 c0 -60 3 -75 15 -75 13 0 15 24 15 155 0 131 -2 155 -15 155 -12 0 -15
-14 -15 -70 l0 -70 -85 0 -85 0 0 70 c0 40 -4 70 -10 70 -6 0 -10 -58 -10
-155z"/>
<path d="M9855 6008 c-3 -7 -27 -75 -55 -150 -55 -153 -54 -148 -39 -148 5 0
17 16 25 35 l15 36 76 -3 77 -3 10 -32 c5 -18 15 -33 24 -33 8 0 12 6 10 13
-96 260 -112 297 -124 297 -8 0 -17 -6 -19 -12z m54 -116 l30 -82 -64 0 c-36
0 -65 2 -65 4 0 2 6 19 13 37 8 19 22 56 31 82 10 27 20 47 21 45 2 -2 17 -41
34 -86z"/>
<path d="M10040 6011 c0 -6 19 -11 43 -13 l42 -3 3 -142 c3 -192 22 -190 22 2
l0 145 40 0 c22 0 40 5 40 10 0 6 -38 10 -95 10 -53 0 -95 -4 -95 -9z"/>
<path d="M10440 5865 c0 -184 18 -214 22 -37 l3 117 58 -117 c32 -65 61 -118
65 -118 4 0 32 53 64 118 l56 117 1 -117 c1 -98 4 -118 16 -118 13 0 15 24 15
155 0 121 -3 155 -13 155 -7 0 -42 -60 -76 -132 l-63 -133 -64 133 c-35 72
-68 132 -74 132 -6 0 -10 -56 -10 -155z"/>
<path d="M10905 6008 c-3 -7 -27 -75 -55 -150 -55 -153 -54 -148 -39 -148 5 0
17 16 25 35 l15 36 76 -3 77 -3 10 -32 c5 -18 15 -33 24 -33 8 0 12 6 10 13
-96 260 -112 297 -124 297 -8 0 -17 -6 -19 -12z m54 -116 l30 -82 -64 0 c-36
0 -65 2 -65 4 0 2 6 19 13 37 8 19 22 56 31 82 10 27 20 47 21 45 2 -2 17 -41
34 -86z"/>
<path d="M11100 6011 c0 -6 19 -11 43 -13 l42 -3 3 -142 c1 -81 7 -143 12
-143 5 0 11 62 12 143 l3 142 38 3 c20 2 37 7 37 13 0 5 -42 9 -95 9 -53 0
-95 -4 -95 -9z"/>
<path d="M11340 6011 c0 -6 19 -11 43 -13 l42 -3 3 -142 c3 -192 22 -190 22 2
l0 145 40 0 c22 0 40 5 40 10 0 6 -38 10 -95 10 -53 0 -95 -4 -95 -9z"/>
<path d="M11600 5865 l0 -155 75 0 c91 0 101 18 13 22 l-63 3 0 60 0 60 58 3
c73 4 66 22 -9 22 l-55 0 3 58 3 57 63 3 c88 4 78 22 -13 22 l-75 0 0 -155z"/>
<path d="M11810 5866 c0 -97 4 -156 10 -156 6 0 10 28 10 65 0 65 0 65 29 65
25 0 35 -9 70 -65 22 -36 47 -65 56 -65 21 0 20 4 -25 71 -36 53 -39 60 -23
66 64 22 85 99 38 143 -19 18 -39 24 -95 28 l-70 5 0 -157z m145 114 c19 -16
20 -84 0 -100 -8 -7 -38 -13 -67 -14 l-53 -1 -3 54 c-5 79 -1 84 58 79 27 -3
56 -11 65 -18z"/>
<path d="M12125 6008 c-76 -41 -51 -135 41 -152 55 -10 84 -32 84 -61 0 -61
-80 -86 -126 -40 -28 28 -49 33 -40 9 3 -9 6 -17 6 -20 0 -2 13 -10 30 -19 65
-34 142 -6 155 56 10 47 -13 73 -84 93 -71 20 -100 51 -81 85 24 46 78 53 116
16 14 -14 29 -25 34 -25 17 0 11 20 -15 45 -26 27 -83 33 -120 13z"/>
</g>
</svg>
